<?xml version="1.0" standalone="no"?>
<!DOCTYPE svg PUBLIC "-//W3C//DTD SVG 20010904//EN"
 "http://www.w3.org/TR/2001/REC-SVG-20010904/DTD/svg10.dtd">
<svg version="1.0" xmlns="http://www.w3.org/2000/svg"
 width="888.000000pt" height="294.000000pt" viewBox="0 0 888.000000 294.000000"
 preserveAspectRatio="xMidYMid meet">

<g transform="translate(0.000000,294.000000) scale(0.100000,-0.100000)"
fill="#000000" stroke="none">
<path d="M20 1480 l0 -1410 4395 0 4395 0 0 1410 0 1410 -4395 0 -4395 0 0
-1410z m5971 831 c246 -63 436 -241 492 -461 17 -66 14 -78 57 200 17 107 33
205 35 218 l5 22 323 0 c354 -1 437 -9 526 -54 174 -89 236 -256 174 -476 -46
-165 -164 -293 -317 -345 l-64 -21 124 -205 c69 -112 128 -205 133 -207 5 -2
44 48 86 110 43 62 81 117 85 122 5 4 37 -14 73 -42 139 -106 294 -129 397
-60 52 36 75 74 75 123 0 76 -46 110 -224 164 -254 79 -320 140 -329 306 -14
268 161 515 423 598 95 30 283 29 396 -1 70 -19 239 -89 239 -99 0 -2 -46 -71
-101 -153 l-102 -149 -51 35 c-28 18 -81 41 -119 50 -58 15 -76 15 -123 5
-100 -23 -163 -103 -132 -168 19 -41 67 -68 191 -109 198 -65 271 -111 324
-202 22 -38 28 -61 31 -131 11 -238 -114 -456 -319 -559 -125 -63 -189 -77
-354 -77 -150 0 -220 13 -322 60 -29 13 -53 20 -53 15 0 -5 5 -12 10 -15 33
-20 -10 -25 -233 -25 l-242 0 -134 280 c-74 155 -137 283 -141 285 -3 2 -26
-124 -50 -281 l-44 -284 -199 0 -199 0 6 28 c8 38 76 478 76 488 0 5 -18 -24
-39 -63 -96 -181 -251 -328 -438 -414 -220 -102 -507 -118 -714 -40 -143 54
-273 171 -338 303 -57 117 -74 191 -74 328 0 182 49 346 146 488 l36 52 -145
0 c-79 0 -144 -2 -144 -4 0 -3 -40 -260 -90 -572 -49 -312 -90 -573 -90 -581
0 -10 -40 -13 -200 -13 l-200 0 5 22 c2 13 43 268 90 568 47 300 87 553 89
563 4 15 -7 17 -118 17 l-122 0 -47 -304 c-55 -356 -73 -432 -127 -545 -32
-66 -57 -100 -118 -160 -88 -87 -157 -127 -287 -167 -84 -26 -103 -28 -270
-28 -168 0 -185 1 -257 26 -176 59 -270 157 -304 317 -21 103 -17 164 31 476
25 160 49 311 52 338 l6 47 -122 0 c-66 0 -121 -4 -121 -9 0 -15 -182 -1156
-184 -1159 -2 -1 -91 -1 -198 0 l-194 3 87 555 c49 305 90 567 93 583 l5 27
-159 0 -160 0 1 28 c0 15 10 90 23 167 l22 140 677 3 c568 2 677 0 677 -12 0
-7 -29 -199 -65 -427 -77 -491 -81 -535 -65 -612 22 -108 85 -151 215 -150
157 1 244 79 295 265 16 60 150 885 150 926 0 9 144 12 680 12 l680 0 -5 -27
c-22 -127 -35 -211 -35 -226 0 -13 17 -3 67 39 165 141 339 222 539 254 84 13
246 4 335 -19z m-4412 -443 c50 -233 125 -573 165 -756 l73 -332 -211 2 -211
3 -22 105 c-12 58 -25 115 -28 128 l-5 22 -269 0 -269 0 -72 -130 -71 -130
-210 0 -211 0 35 63 c19 34 198 364 397 732 199 369 369 680 377 693 13 22 16
22 226 22 l213 0 93 -422z"/>
<path d="M6926 1978 c-6 -18 -56 -341 -56 -358 0 -10 17 -12 81 -7 139 11 221
65 248 162 25 91 2 147 -73 180 -61 27 -194 42 -200 23z"/>
<path d="M5653 1949 c-168 -28 -307 -133 -382 -289 -34 -72 -36 -80 -36 -180
0 -99 2 -110 33 -172 38 -77 92 -130 171 -167 49 -23 68 -26 156 -25 80 0 111
5 155 23 133 55 249 173 307 311 36 88 39 221 6 292 -30 66 -105 143 -168 172
-42 20 -164 49 -185 45 -3 -1 -28 -5 -57 -10z"/>
<path d="M1078 1580 l-116 -240 159 0 c87 0 159 4 159 9 0 13 -81 465 -84 468
-1 1 -54 -105 -118 -237z"/>
</g>
</svg>
